<svg width="371" height="294" viewBox="0 0 371 294" fill="none" xmlns="http://www.w3.org/2000/svg">
<path fill-rule="evenodd" clip-rule="evenodd" d="M238.896 82.695H39.1531C37.5547 82.695 36.2589 83.998 36.2589 85.6053V254.4C36.2589 256.007 37.5547 257.31 39.1531 257.31H331.46C333.059 257.31 334.355 256.007 334.355 254.4V85.6053C334.355 83.998 333.059 82.695 331.46 82.695H279.826L300.085 62.3232H331.46C344.248 62.3232 354.614 72.747 354.614 85.6053V254.4C354.614 267.258 344.248 277.682 331.46 277.682H39.1531C26.366 277.682 16 267.258 16 254.4V85.6053C16 72.747 26.366 62.3232 39.1531 62.3232H259.155L238.896 82.695ZM30.4707 156.906C30.4707 159.317 28.527 161.272 26.1295 161.272C23.7319 161.272 21.7883 159.317 21.7883 156.906C21.7883 154.496 23.7319 152.541 26.1295 152.541C28.527 152.541 30.4707 154.496 30.4707 156.906ZM26.1295 175.823C28.527 175.823 30.4707 173.869 30.4707 171.458C30.4707 169.047 28.527 167.092 26.1295 167.092C23.7319 167.092 21.7883 169.047 21.7883 171.458C21.7883 173.869 23.7319 175.823 26.1295 175.823ZM30.4707 186.009C30.4707 188.42 28.527 190.374 26.1295 190.374C23.7319 190.374 21.7883 188.42 21.7883 186.009C21.7883 183.598 23.7319 181.644 26.1295 181.644C28.527 181.644 30.4707 183.598 30.4707 186.009Z" fill="#181A1E"/>
<path fill-rule="evenodd" clip-rule="evenodd" d="M93.4875 125.641C101.803 119.776 113.447 119.819 124.674 128.679L119.754 134.983C110.826 127.937 103.048 128.686 98.0628 132.201C92.824 135.895 89.7605 143.223 91.5818 151.124C92.3506 154.459 94.2895 156.595 97.3104 158.373C99.9816 159.944 103.144 161.047 106.808 162.325C107.609 162.604 108.435 162.892 109.285 163.195C113.752 164.788 118.781 166.781 122.808 170.288C127.019 173.955 129.918 179.073 130.543 186.388C130.882 190.361 130.223 193.804 128.807 196.702C131.692 198.067 134.763 199.533 138.031 201.105L134.593 208.334C130.598 206.412 126.912 204.655 123.511 203.055C123.316 203.203 123.117 203.348 122.915 203.489C118.024 206.922 111.608 208.266 105.588 208.359C99.5286 208.453 93.3223 207.289 88.5354 205.15C86.1482 204.084 83.9053 202.682 82.2345 200.88C80.532 199.044 79.2643 196.593 79.4397 193.678C79.6188 190.702 80.0764 186.942 82.6211 184.434C85.4357 181.66 89.4117 181.608 93.3438 182.37C97.4262 183.162 102.836 185.099 109.96 188.132C113.366 189.582 117.22 191.307 121.579 193.321C122.424 191.669 122.822 189.629 122.603 187.074C122.152 181.785 120.195 178.612 117.591 176.345C114.804 173.917 111.062 172.331 106.621 170.748C105.922 170.498 105.198 170.247 104.458 169.99C100.779 168.713 96.7016 167.298 93.2862 165.289C88.949 162.737 85.2154 158.99 83.819 152.933C81.31 142.05 85.4257 131.326 93.4875 125.641ZM114.469 198.87C111.695 197.612 109.163 196.494 106.853 195.511C99.7863 192.502 95.0348 190.858 91.8353 190.238C90.2488 189.931 89.2734 189.923 88.7083 190.006C88.4442 190.044 88.3087 190.097 88.2559 190.122C88.2135 190.141 88.2031 190.152 88.1997 190.156L88.199 190.156C88.0697 190.284 87.5818 191.037 87.3938 194.162C87.3857 194.297 87.3962 194.697 88.0628 195.416C88.7611 196.169 89.978 197.027 91.7706 197.827C95.3432 199.423 100.376 200.425 105.466 200.347C108.759 200.296 111.853 199.798 114.469 198.87Z" fill="#181A1E"/>
<path d="M303.176 22.1736C306.567 18.764 312.064 18.764 315.455 22.1736L319.548 26.2893C322.938 29.6989 322.938 35.2269 319.548 38.6365L168.579 190.447L152.207 173.984L303.176 22.1736Z" fill="#181A1E"/>
<path d="M134.482 208.28C132.367 206.153 149.164 176.563 149.164 176.563L166.023 193.516C166.023 193.516 136.597 210.406 134.482 208.28Z" fill="#181A1E"/>
</svg>
