<svg width="1064" height="481" viewBox="0 0 1064 481" fill="none" xmlns="http://www.w3.org/2000/svg">
<path d="M24 387.455V327.078H32.3465V387.455H24ZM94.5024 327.078H102.849V388.317H101.829L58.2415 345.278V387.455H49.9878V326.216H50.9151L94.5024 369.256V327.078ZM158.42 387.455L139.223 359.94L128.837 371.929V387.455H120.49V327.078H128.837V359.94L157.678 327.078H167.787L144.88 353.471L168.158 387.455H158.42ZM189.416 334.496V353.126H209.262V360.544H189.416V387.455H181.07V327.078H217.98L218.536 334.496H189.416ZM240.814 380.037H268.265L267.709 387.455H232.468V327.078H240.814V380.037ZM311.038 388.317C292.491 388.317 277.745 374.517 277.745 357.267C277.745 340.016 292.491 326.216 311.038 326.216C329.586 326.216 344.332 340.016 344.332 357.267C344.332 374.517 329.586 388.317 311.038 388.317ZM311.038 380.9C325.135 380.9 335.707 370.636 335.707 357.267C335.707 343.897 325.135 333.633 311.038 333.633C296.849 333.633 286.277 343.897 286.277 357.267C286.277 370.636 296.849 380.9 311.038 380.9ZM353.905 327.078H362.622L376.904 368.221L393.875 326.216H394.895L412.052 368.221L426.241 327.078H435.051L413.258 388.317H412.237L394.432 345.191L376.533 388.317H375.606L353.905 327.078ZM523.473 387.455L517.816 375.207H488.882L483.224 387.455H474.322L502.885 326.216H503.812L532.376 387.455H523.473ZM492.22 367.962H514.477L503.349 344.07L492.22 367.962ZM543.618 387.455V327.078H551.965V387.455H543.618ZM600.694 357.267C600.694 339.844 615.44 326.216 633.988 326.216C641.778 326.216 649.197 328.631 655.781 333.288L651.608 339.326C646.137 335.445 640.479 333.547 633.988 333.547C619.984 333.547 609.041 343.984 609.041 357.267C609.041 370.549 620.077 380.986 633.988 380.986C641.036 380.986 647.064 378.916 651.608 374.862L655.874 380.813C650.217 385.557 642.241 388.317 633.988 388.317C615.44 388.317 600.694 374.603 600.694 357.267ZM700.595 388.317C682.047 388.317 667.302 374.517 667.302 357.267C667.302 340.016 682.047 326.216 700.595 326.216C719.143 326.216 733.888 340.016 733.888 357.267C733.888 374.517 719.143 388.317 700.595 388.317ZM700.595 380.9C714.691 380.9 725.264 370.636 725.264 357.267C725.264 343.897 714.691 333.633 700.595 333.633C686.406 333.633 675.834 343.897 675.834 357.267C675.834 370.636 686.406 380.9 700.595 380.9ZM793.54 327.078H801.887V388.317H800.867L757.279 345.278V387.455H749.026V326.216H749.953L793.54 369.256V327.078ZM813.964 327.078H823.052L842.713 371.239L862.466 327.078H871.555L843.269 388.317H842.249L813.964 327.078ZM922.675 380.037L923.231 387.455H883.724V327.078H921.376L922.025 334.496H892.071V349.245H912.381V356.663H892.071V380.037H922.675ZM984.46 348.9C984.46 358.647 979.544 367.013 969.436 369.773L983.439 387.455H973.424L960.162 370.722H945.602V387.455H937.255V327.078H961.739C977.04 327.078 984.46 336.911 984.46 348.9ZM945.602 334.324V363.39H961.368C971.847 363.39 976.113 356.232 976.113 348.9C976.113 341.569 971.847 334.324 961.368 334.324H945.602ZM1039.85 334.496H1020.93V387.455H1012.58V334.496H993.569L994.125 327.078H1039.29L1039.85 334.496Z" fill="white"/>
<path d="M41.0887 428.018H44.6082V453.477H41.0887V441.766H27.5194V453.477H24V428.018H27.5194V438.638H41.0887V428.018ZM75.015 453.477L72.6296 448.312H60.4289L58.0435 453.477H54.2895L66.3337 427.654H66.7248L78.769 453.477H75.015ZM61.8367 445.257H71.2218L66.5293 435.183L61.8367 445.257ZM107.26 428.018H110.779V453.84H110.349L91.9698 435.692V453.477H88.4895V427.654H88.8805L107.26 445.803V428.018ZM132.583 428.018C141.655 428.018 146.661 433.182 146.661 440.747C146.661 448.312 141.655 453.477 132.583 453.477H123.198V428.018H132.583ZM132.778 450.349C139.426 450.349 143.141 446.494 143.141 440.747C143.141 434.965 139.426 431.146 132.778 431.146H126.717V450.349H132.778ZM155.677 428.018H159.353L165.375 445.366L172.531 427.654H172.961L180.196 445.366L186.179 428.018H189.894L180.704 453.84H180.274L172.766 435.656L165.219 453.84H164.828L155.677 428.018ZM219.87 437.219C219.87 441.329 217.798 444.857 213.535 446.021L219.44 453.477H215.217L209.625 446.421H203.486V453.477H199.966V428.018H210.29C216.742 428.018 219.87 432.164 219.87 437.219ZM203.486 431.073V443.33H210.133C214.552 443.33 216.351 440.311 216.351 437.219C216.351 434.128 214.552 431.073 210.133 431.073H203.486ZM231.116 453.477V428.018H234.635V453.477H231.116ZM264.143 431.146H256.165V453.477H252.646V431.146H244.63L244.864 428.018H263.908L264.143 431.146ZM274.215 453.477V428.018H277.735V453.477H274.215ZM308.923 428.018H312.443V453.84H312.013L293.634 435.692V453.477H290.153V427.654H290.544L308.923 445.803V428.018ZM347.542 438.711V451.185C345.431 452.676 342.537 453.84 337.962 453.84C329.359 453.84 323.767 448.021 323.767 440.747C323.767 433.473 329.671 427.654 337.883 427.654C341.677 427.654 344.805 428.927 347.269 430.746L345.431 433.219C343.28 431.619 340.621 430.782 337.883 430.782C332.018 430.782 327.443 434.928 327.443 440.747C327.443 446.566 331.666 450.676 337.962 450.676C340.347 450.676 342.38 450.203 344.023 449.476V441.875H338.744L338.978 438.711H347.542ZM395.842 431.146H387.865V453.477H384.346V431.146H376.329L376.564 428.018H395.608L395.842 431.146ZM425.819 437.219C425.819 441.329 423.747 444.857 419.484 446.021L425.389 453.477H421.166L415.574 446.421H409.434V453.477H405.915V428.018H416.238C422.691 428.018 425.819 432.164 425.819 437.219ZM409.434 431.073V443.33H416.082C420.501 443.33 422.3 440.311 422.3 437.219C422.3 434.128 420.501 431.073 416.082 431.073H409.434ZM455.053 453.477L452.667 448.312H440.467L438.081 453.477H434.327L446.372 427.654H446.763L458.807 453.477H455.053ZM441.875 445.257H451.26L446.567 435.183L441.875 445.257ZM487.298 428.018H490.817V453.84H490.387L472.008 435.692V453.477H468.527V427.654H468.918L487.298 445.803V428.018ZM501.711 450.822C503.431 452.313 506.99 453.84 510.548 453.84C516.023 453.84 519.503 451.222 519.503 447.112C519.503 443.766 517.783 441.802 511.839 438.674C507.302 436.237 506.208 435.437 506.208 433.837C506.208 432.128 507.928 430.782 510.822 430.782C512.503 430.782 514.732 431.473 516.023 432.237L517.9 429.618C516.062 428.491 513.168 427.654 510.861 427.654C505.817 427.654 502.454 430.346 502.454 433.873C502.454 437.001 504.135 438.565 509.297 441.184C513.872 443.511 515.749 445.221 515.749 447.076C515.749 449.258 513.716 450.567 510.548 450.567C507.811 450.567 505.074 449.367 503.705 448.203L501.711 450.822ZM533.916 431.146V439.002H542.285V442.129H533.916V453.477H530.397V428.018H545.96L546.195 431.146H533.916ZM569.993 453.84C562.172 453.84 555.955 448.021 555.955 440.747C555.955 433.473 562.172 427.654 569.993 427.654C577.814 427.654 584.032 433.473 584.032 440.747C584.032 448.021 577.814 453.84 569.993 453.84ZM569.993 450.713C575.937 450.713 580.395 446.385 580.395 440.747C580.395 435.11 575.937 430.782 569.993 430.782C564.01 430.782 559.552 435.11 559.552 440.747C559.552 446.385 564.01 450.713 569.993 450.713ZM615.299 437.219C615.299 441.329 613.226 444.857 608.964 446.021L614.869 453.477H610.645L605.053 446.421H598.914V453.477H595.395V428.018H605.718C612.17 428.018 615.299 432.164 615.299 437.219ZM598.914 431.073V443.33H605.562C609.981 443.33 611.779 440.311 611.779 437.219C611.779 434.128 609.981 431.073 605.562 431.073H598.914ZM652.705 427.654H653.136V453.477H649.655V436.347L639.957 448.13H639.723L630.025 436.383V453.477H626.544V427.654H626.935L639.84 442.929L652.705 427.654ZM681.978 450.349L682.213 453.477H665.554V428.018H681.431L681.704 431.146H669.074V437.365H677.638V440.493H669.074V450.349H681.978ZM702.492 428.018C711.564 428.018 716.569 433.182 716.569 440.747C716.569 448.312 711.564 453.477 702.492 453.477H693.106V428.018H702.492ZM702.687 450.349C709.335 450.349 713.05 446.494 713.05 440.747C713.05 434.965 709.335 431.146 702.687 431.146H696.626V450.349H702.687ZM728.753 449.403H731.647L729.183 456.713H726.759L728.753 449.403ZM760.668 450.822C762.389 452.313 765.948 453.84 769.506 453.84C774.981 453.84 778.461 451.222 778.461 447.112C778.461 443.766 776.74 441.802 770.797 438.674C766.26 436.237 765.165 435.437 765.165 433.837C765.165 432.128 766.886 430.782 769.78 430.782C771.461 430.782 773.69 431.473 774.981 432.237L776.858 429.618C775.02 428.491 772.126 427.654 769.819 427.654C764.774 427.654 761.411 430.346 761.411 433.873C761.411 437.001 763.093 438.565 768.255 441.184C772.83 443.511 774.707 445.221 774.707 447.076C774.707 449.258 772.674 450.567 769.506 450.567C766.769 450.567 764.031 449.367 762.663 448.203L760.668 450.822ZM805.779 450.349L806.013 453.477H789.355V428.018H805.231L805.505 431.146H792.874V437.365H801.438V440.493H792.874V450.349H805.779ZM834.895 453.477L832.51 448.312H820.309L817.924 453.477H814.17L826.214 427.654H826.605L838.649 453.477H834.895ZM821.717 445.257H831.102L826.409 435.183L821.717 445.257ZM874.531 427.654H874.961V453.477H871.48V436.347L861.782 448.13H861.548L851.85 436.383V453.477H848.369V427.654H848.761L861.665 442.929L874.531 427.654ZM890.899 450.349H902.474L902.239 453.477H887.379V428.018H890.899V450.349ZM928.97 450.349L929.205 453.477H912.546V428.018H928.423L928.696 431.146H916.066V437.365H924.63V440.493H916.066V450.349H928.97ZM938.573 450.822C940.294 452.313 943.852 453.84 947.411 453.84C952.886 453.84 956.366 451.222 956.366 447.112C956.366 443.766 954.645 441.802 948.701 438.674C944.165 436.237 943.07 435.437 943.07 433.837C943.07 432.128 944.791 430.782 947.685 430.782C949.366 430.782 951.595 431.473 952.886 432.237L954.763 429.618C952.925 428.491 950.031 427.654 947.724 427.654C942.679 427.654 939.316 430.346 939.316 433.873C939.316 437.001 940.998 438.565 946.16 441.184C950.735 443.511 952.612 445.221 952.612 447.076C952.612 449.258 950.578 450.567 947.411 450.567C944.674 450.567 941.936 449.367 940.568 448.203L938.573 450.822ZM965.734 450.822C967.455 452.313 971.014 453.84 974.572 453.84C980.047 453.84 983.527 451.222 983.527 447.112C983.527 443.766 981.806 441.802 975.863 438.674C971.326 436.237 970.231 435.437 970.231 433.837C970.231 432.128 971.952 430.782 974.846 430.782C976.527 430.782 978.756 431.473 980.047 432.237L981.924 429.618C980.086 428.491 977.192 427.654 974.885 427.654C969.84 427.654 966.477 430.346 966.477 433.873C966.477 437.001 968.159 438.565 973.321 441.184C977.896 443.511 979.773 445.221 979.773 447.076C979.773 449.258 977.74 450.567 974.572 450.567C971.835 450.567 969.097 449.367 967.729 448.203L965.734 450.822ZM997.94 450.349H1009.51L1009.28 453.477H994.421V428.018H997.94V450.349ZM1040 428.018L1030.34 442.166V453.477H1026.82V442.202L1017.12 428.018H1021.11L1028.58 438.965L1036.01 428.018H1040Z" fill="white"/>
<path fill-rule="evenodd" clip-rule="evenodd" d="M586.007 91.4089H386.263C384.665 91.4089 383.369 92.7119 383.369 94.3191V263.114C383.369 264.721 384.665 266.024 386.263 266.024H678.571C680.169 266.024 681.465 264.721 681.465 263.114V94.3191C681.465 92.7119 680.169 91.4089 678.571 91.4089H626.936L647.195 71.0371H678.571C691.358 71.0371 701.724 81.4608 701.724 94.3191V263.114C701.724 275.972 691.358 286.396 678.571 286.396H386.263C373.476 286.396 363.11 275.972 363.11 263.114V94.3191C363.11 81.4608 373.476 71.0371 386.263 71.0371H606.266L586.007 91.4089ZM377.581 165.62C377.581 168.031 375.637 169.986 373.24 169.986C370.842 169.986 368.899 168.031 368.899 165.62C368.899 163.209 370.842 161.255 373.24 161.255C375.637 161.255 377.581 163.209 377.581 165.62ZM373.24 184.537C375.637 184.537 377.581 182.583 377.581 180.172C377.581 177.761 375.637 175.806 373.24 175.806C370.842 175.806 368.899 177.761 368.899 180.172C368.899 182.583 370.842 184.537 373.24 184.537ZM377.581 194.723C377.581 197.134 375.637 199.088 373.24 199.088C370.842 199.088 368.899 197.134 368.899 194.723C368.899 192.312 370.842 190.358 373.24 190.358C375.637 190.358 377.581 192.312 377.581 194.723Z" fill="white"/>
<path fill-rule="evenodd" clip-rule="evenodd" d="M440.598 134.354C448.914 128.49 460.557 128.532 471.784 137.393L466.864 143.697C457.936 136.65 450.158 137.4 445.173 140.915C439.934 144.609 436.871 151.937 438.692 159.838C439.461 163.173 441.4 165.309 444.421 167.087C447.092 168.658 450.255 169.761 453.918 171.039C454.72 171.318 455.546 171.606 456.395 171.909C460.862 173.502 465.892 175.494 469.919 179.002C474.129 182.669 477.028 187.787 477.653 195.102C477.993 199.075 477.333 202.518 475.917 205.416C478.803 206.78 481.874 208.247 485.142 209.818L481.704 217.047C477.708 215.126 474.022 213.369 470.621 211.769C470.426 211.917 470.227 212.061 470.026 212.203C465.134 215.636 458.719 216.98 452.699 217.073C446.639 217.166 440.433 216.002 435.646 213.864C433.259 212.798 431.016 211.396 429.345 209.594C427.642 207.758 426.375 205.307 426.55 202.392C426.729 199.416 427.187 195.656 429.731 193.148C432.546 190.373 436.522 190.322 440.454 191.084C444.537 191.875 449.946 193.813 457.07 196.845C460.476 198.295 464.33 200.021 468.689 202.034C469.534 200.383 469.932 198.343 469.714 195.787C469.262 190.499 467.305 187.326 464.702 185.059C461.915 182.631 458.173 181.045 453.732 179.461C453.033 179.212 452.309 178.961 451.568 178.704C447.889 177.427 443.812 176.012 440.397 174.003C436.059 171.451 432.326 167.704 430.929 161.647C428.42 150.764 432.536 140.04 440.598 134.354ZM461.58 207.584C458.805 206.326 456.274 205.208 453.963 204.224C446.897 201.216 442.145 199.572 438.946 198.952C437.359 198.645 436.384 198.637 435.819 198.719C435.555 198.758 435.419 198.811 435.366 198.835C435.324 198.855 435.313 198.866 435.31 198.869L435.309 198.87C435.18 198.998 434.692 199.751 434.504 202.876C434.496 203.011 434.507 203.411 435.173 204.13C435.871 204.883 437.088 205.74 438.881 206.541C442.454 208.137 447.486 209.139 452.576 209.061C455.869 209.01 458.963 208.512 461.58 207.584Z" fill="white"/>
<path d="M650.286 30.8875C653.677 27.4779 659.174 27.4779 662.565 30.8874L666.658 35.0032C670.049 38.4127 670.049 43.9408 666.658 47.3503L515.689 199.16L499.317 182.698L650.286 30.8875Z" fill="white"/>
<path d="M481.592 216.993C479.478 214.867 496.274 185.276 496.274 185.276L513.134 202.23C513.134 202.23 483.707 219.12 481.592 216.993Z" fill="white"/>
</svg>
