<svg width="1427" height="310" viewBox="0 0 1427 310" fill="none" xmlns="http://www.w3.org/2000/svg">
<path fill-rule="evenodd" clip-rule="evenodd" d="M246.896 90.6948H47.1531C45.5547 90.6948 44.2589 91.9977 44.2589 93.605V262.4C44.2589 264.007 45.5547 265.31 47.1531 265.31H339.46C341.059 265.31 342.355 264.007 342.355 262.4V93.605C342.355 91.9977 341.059 90.6948 339.46 90.6948H287.826L308.085 70.323H339.46C352.248 70.323 362.614 80.7467 362.614 93.605V262.4C362.614 275.258 352.248 285.682 339.46 285.682H47.1531C34.366 285.682 24 275.258 24 262.4V93.605C24 80.7467 34.366 70.323 47.1531 70.323H267.155L246.896 90.6948ZM38.4707 164.906C38.4707 167.317 36.527 169.272 34.1295 169.272C31.7319 169.272 29.7883 167.317 29.7883 164.906C29.7883 162.495 31.7319 160.541 34.1295 160.541C36.527 160.541 38.4707 162.495 38.4707 164.906ZM34.1295 183.823C36.527 183.823 38.4707 181.868 38.4707 179.458C38.4707 177.047 36.527 175.092 34.1295 175.092C31.7319 175.092 29.7883 177.047 29.7883 179.458C29.7883 181.868 31.7319 183.823 34.1295 183.823ZM38.4707 194.009C38.4707 196.42 36.527 198.374 34.1295 198.374C31.7319 198.374 29.7883 196.42 29.7883 194.009C29.7883 191.598 31.7319 189.643 34.1295 189.643C36.527 189.643 38.4707 191.598 38.4707 194.009Z" fill="#181A1E"/>
<path fill-rule="evenodd" clip-rule="evenodd" d="M101.487 133.641C109.803 127.776 121.447 127.819 132.674 136.679L127.754 142.983C118.826 135.937 111.048 136.686 106.063 140.201C100.824 143.895 97.7605 151.223 99.5818 159.124C100.351 162.459 102.29 164.595 105.31 166.373C107.982 167.944 111.144 169.047 114.808 170.325C115.609 170.604 116.435 170.892 117.285 171.195C121.752 172.788 126.781 174.781 130.808 178.288C135.019 181.955 137.918 187.073 138.543 194.388C138.882 198.361 138.223 201.804 136.807 204.702C139.692 206.067 142.763 207.533 146.031 209.105L142.593 216.334C138.598 214.412 134.912 212.655 131.511 211.055C131.316 211.203 131.117 211.348 130.915 211.489C126.024 214.922 119.608 216.266 113.588 216.359C107.529 216.453 101.322 215.289 96.5354 213.15C94.1482 212.084 91.9053 210.682 90.2345 208.88C88.532 207.044 87.2643 204.593 87.4397 201.678C87.6188 198.702 88.0764 194.942 90.6211 192.434C93.4357 189.66 97.4117 189.608 101.344 190.37C105.426 191.162 110.836 193.099 117.96 196.132C121.366 197.582 125.22 199.307 129.579 201.321C130.424 199.669 130.822 197.629 130.603 195.074C130.152 189.785 128.195 186.612 125.591 184.345C122.804 181.917 119.062 180.331 114.621 178.748C113.922 178.498 113.198 178.247 112.458 177.99C108.779 176.713 104.702 175.298 101.286 173.289C96.949 170.737 93.2154 166.99 91.819 160.933C89.31 150.05 93.4257 139.326 101.487 133.641ZM122.469 206.87C119.695 205.612 117.163 204.494 114.853 203.511C107.786 200.502 103.035 198.858 99.8353 198.238C98.2488 197.931 97.2734 197.923 96.7083 198.006C96.4442 198.044 96.3087 198.097 96.2559 198.122C96.2135 198.141 96.2031 198.152 96.1997 198.156L96.199 198.156C96.0697 198.284 95.5818 199.037 95.3938 202.162C95.3857 202.297 95.3962 202.697 96.0628 203.416C96.7611 204.169 97.978 205.027 99.7706 205.827C103.343 207.423 108.376 208.425 113.466 208.347C116.759 208.296 119.853 207.798 122.469 206.87Z" fill="#181A1E"/>
<path d="M311.176 30.1736C314.567 26.764 320.064 26.764 323.455 30.1736L327.548 34.2893C330.938 37.6989 330.938 43.2269 327.548 46.6365L176.579 198.447L160.207 181.984L311.176 30.1736Z" fill="#181A1E"/>
<path d="M142.482 216.28C140.367 214.153 157.164 184.563 157.164 184.563L174.023 201.516C174.023 201.516 144.597 218.406 142.482 216.28Z" fill="#181A1E"/>
<path d="M386.613 150.832V90.455H394.96V150.832H386.613ZM457.116 90.455H465.462V151.694H464.442L420.855 108.654V150.832H412.601V89.5925H413.528L457.116 132.632V90.455ZM521.034 150.832L501.837 123.317L491.45 135.306V150.832H483.103V90.455H491.45V123.317L520.292 90.455H530.4L507.494 116.848L530.771 150.832H521.034ZM552.029 97.8727V116.503H571.875V123.921H552.029V150.832H543.683V90.455H580.593L581.149 97.8727H552.029ZM603.428 143.414H630.878L630.322 150.832H595.081V90.455H603.428V143.414ZM673.652 151.694C655.104 151.694 640.358 137.894 640.358 120.643C640.358 103.393 655.104 89.5925 673.652 89.5925C692.199 89.5925 706.945 103.393 706.945 120.643C706.945 137.894 692.199 151.694 673.652 151.694ZM673.652 144.276C687.748 144.276 698.32 134.012 698.32 120.643C698.32 107.274 687.748 97.0102 673.652 97.0102C659.463 97.0102 648.89 107.274 648.89 120.643C648.89 134.012 659.463 144.276 673.652 144.276ZM716.518 90.455H725.235L739.517 131.597L756.488 89.5925H757.509L774.665 131.597L788.854 90.455H797.664L775.871 151.694H774.851L757.045 108.568L739.146 151.694H738.219L716.518 90.455ZM886.086 150.832L880.429 138.584H851.495L845.838 150.832H836.935L865.498 89.5925H866.426L894.989 150.832H886.086ZM854.833 131.339H877.091L865.962 107.447L854.833 131.339ZM906.232 150.832V90.455H914.578V150.832H906.232ZM963.308 120.643C963.308 103.22 978.053 89.5925 996.601 89.5925C1004.39 89.5925 1011.81 92.0076 1018.39 96.6652L1014.22 102.703C1008.75 98.8215 1003.09 96.924 996.601 96.924C982.597 96.924 971.654 107.36 971.654 120.643C971.654 133.926 982.69 144.363 996.601 144.363C1003.65 144.363 1009.68 142.293 1014.22 138.239L1018.49 144.19C1012.83 148.934 1004.85 151.694 996.601 151.694C978.053 151.694 963.308 137.98 963.308 120.643ZM1063.21 151.694C1044.66 151.694 1029.92 137.894 1029.92 120.643C1029.92 103.393 1044.66 89.5925 1063.21 89.5925C1081.76 89.5925 1096.5 103.393 1096.5 120.643C1096.5 137.894 1081.76 151.694 1063.21 151.694ZM1063.21 144.276C1077.3 144.276 1087.88 134.012 1087.88 120.643C1087.88 107.274 1077.3 97.0102 1063.21 97.0102C1049.02 97.0102 1038.45 107.274 1038.45 120.643C1038.45 134.012 1049.02 144.276 1063.21 144.276ZM1156.15 90.455H1164.5V151.694H1163.48L1119.89 108.654V150.832H1111.64V89.5925H1112.57L1156.15 132.632V90.455ZM1176.58 90.455H1185.67L1205.33 134.616L1225.08 90.455H1234.17L1205.88 151.694H1204.86L1176.58 90.455ZM1285.29 143.414L1285.84 150.832H1246.34V90.455H1283.99L1284.64 97.8727H1254.68V112.622H1274.99V120.04H1254.68V143.414H1285.29ZM1347.07 112.277C1347.07 122.023 1342.16 130.39 1332.05 133.15L1346.05 150.832H1336.04L1322.78 134.099H1308.22V150.832H1299.87V90.455H1324.35C1339.65 90.455 1347.07 100.288 1347.07 112.277ZM1308.22 97.7002V126.767H1323.98C1334.46 126.767 1338.73 119.608 1338.73 112.277C1338.73 104.945 1334.46 97.7002 1323.98 97.7002H1308.22ZM1402.46 97.8727H1383.54V150.832H1375.19V97.8727H1356.18L1356.74 90.455H1401.9L1402.46 97.8727Z" fill="#181A1E"/>
<path d="M403.702 191.394H407.221V216.853H403.702V205.142H390.133V216.853H386.613V191.394H390.133V202.014H403.702V191.394ZM437.628 216.853L435.243 211.688H423.042L420.657 216.853H416.903L428.947 191.03H429.338L441.382 216.853H437.628ZM424.45 208.633H433.835L429.143 198.559L424.45 208.633ZM469.873 191.394H473.392V217.216H472.962L454.583 199.068V216.853H451.103V191.03H451.494L469.873 209.179V191.394ZM495.196 191.394C504.268 191.394 509.274 196.558 509.274 204.123C509.274 211.688 504.268 216.853 495.196 216.853H485.811V191.394H495.196ZM495.392 213.725C502.04 213.725 505.754 209.87 505.754 204.123C505.754 198.341 502.04 194.522 495.392 194.522H489.331V213.725H495.392ZM518.29 191.394H521.966L527.988 208.742L535.145 191.03H535.575L542.809 208.742L548.792 191.394H552.507L543.317 217.216H542.887L535.379 199.032L527.832 217.216H527.441L518.29 191.394ZM582.484 200.595C582.484 204.705 580.411 208.233 576.149 209.397L582.054 216.853H577.83L572.238 209.797H566.099V216.853H562.579V191.394H572.903C579.355 191.394 582.484 195.54 582.484 200.595ZM566.099 194.449V206.705H572.747C577.165 206.705 578.964 203.687 578.964 200.595C578.964 197.504 577.165 194.449 572.747 194.449H566.099ZM593.729 216.853V191.394H597.249V216.853H593.729ZM626.756 194.522H618.779V216.853H615.259V194.522H607.243L607.477 191.394H626.521L626.756 194.522ZM636.828 216.853V191.394H640.348V216.853H636.828ZM671.537 191.394H675.056V217.216H674.626L656.247 199.068V216.853H652.767V191.03H653.158L671.537 209.179V191.394ZM710.156 202.087V214.561C708.044 216.052 705.15 217.216 700.575 217.216C691.972 217.216 686.38 211.397 686.38 204.123C686.38 196.849 692.285 191.03 700.497 191.03C704.29 191.03 707.418 192.303 709.882 194.122L708.044 196.595C705.893 194.995 703.234 194.158 700.497 194.158C694.631 194.158 690.056 198.304 690.056 204.123C690.056 209.942 694.279 214.052 700.575 214.052C702.96 214.052 704.994 213.579 706.636 212.852V205.251H701.357L701.592 202.087H710.156ZM758.456 194.522H750.478V216.853H746.959V194.522H738.942L739.177 191.394H758.221L758.456 194.522ZM788.432 200.595C788.432 204.705 786.36 208.233 782.097 209.397L788.002 216.853H783.779L778.187 209.797H772.048V216.853H768.528V191.394H778.852C785.304 191.394 788.432 195.54 788.432 200.595ZM772.048 194.449V206.705H778.695C783.114 206.705 784.913 203.687 784.913 200.595C784.913 197.504 783.114 194.449 778.695 194.449H772.048ZM817.666 216.853L815.281 211.688H803.08L800.695 216.853H796.941L808.985 191.03H809.376L821.42 216.853H817.666ZM804.488 208.633H813.873L809.18 198.559L804.488 208.633ZM849.911 191.394H853.43V217.216H853L834.621 199.068V216.853H831.141V191.03H831.532L849.911 209.179V191.394ZM864.324 214.198C866.044 215.689 869.603 217.216 873.161 217.216C878.636 217.216 882.116 214.598 882.116 210.488C882.116 207.142 880.396 205.178 874.452 202.05C869.916 199.613 868.821 198.813 868.821 197.213C868.821 195.504 870.541 194.158 873.435 194.158C875.117 194.158 877.346 194.849 878.636 195.613L880.513 192.994C878.675 191.867 875.781 191.03 873.474 191.03C868.43 191.03 865.067 193.722 865.067 197.249C865.067 200.377 866.748 201.941 871.91 204.56C876.485 206.887 878.362 208.597 878.362 210.452C878.362 212.634 876.329 213.943 873.161 213.943C870.424 213.943 867.687 212.743 866.318 211.579L864.324 214.198ZM896.529 194.522V202.378H904.898V205.505H896.529V216.853H893.01V191.394H908.574L908.808 194.522H896.529ZM932.606 217.216C924.785 217.216 918.568 211.397 918.568 204.123C918.568 196.849 924.785 191.03 932.606 191.03C940.427 191.03 946.645 196.849 946.645 204.123C946.645 211.397 940.427 217.216 932.606 217.216ZM932.606 214.088C938.55 214.088 943.008 209.761 943.008 204.123C943.008 198.486 938.55 194.158 932.606 194.158C926.623 194.158 922.165 198.486 922.165 204.123C922.165 209.761 926.623 214.088 932.606 214.088ZM977.912 200.595C977.912 204.705 975.84 208.233 971.577 209.397L977.482 216.853H973.259L967.667 209.797H961.527V216.853H958.008V191.394H968.331C974.784 191.394 977.912 195.54 977.912 200.595ZM961.527 194.449V206.705H968.175C972.594 206.705 974.393 203.687 974.393 200.595C974.393 197.504 972.594 194.449 968.175 194.449H961.527ZM1015.32 191.03H1015.75V216.853H1012.27V199.723L1002.57 211.506H1002.34L992.638 199.759V216.853H989.158V191.03H989.549L1002.45 206.305L1015.32 191.03ZM1044.59 213.725L1044.83 216.853H1028.17V191.394H1044.04L1044.32 194.522H1031.69V200.741H1040.25V203.869H1031.69V213.725H1044.59ZM1065.1 191.394C1074.18 191.394 1079.18 196.558 1079.18 204.123C1079.18 211.688 1074.18 216.853 1065.1 216.853H1055.72V191.394H1065.1ZM1065.3 213.725C1071.95 213.725 1075.66 209.87 1075.66 204.123C1075.66 198.341 1071.95 194.522 1065.3 194.522H1059.24V213.725H1065.3ZM1091.37 212.779H1094.26L1091.8 220.089H1089.37L1091.37 212.779ZM1123.28 214.198C1125 215.689 1128.56 217.216 1132.12 217.216C1137.59 217.216 1141.07 214.598 1141.07 210.488C1141.07 207.142 1139.35 205.178 1133.41 202.05C1128.87 199.613 1127.78 198.813 1127.78 197.213C1127.78 195.504 1129.5 194.158 1132.39 194.158C1134.07 194.158 1136.3 194.849 1137.59 195.613L1139.47 192.994C1137.63 191.867 1134.74 191.03 1132.43 191.03C1127.39 191.03 1124.02 193.722 1124.02 197.249C1124.02 200.377 1125.71 201.941 1130.87 204.56C1135.44 206.887 1137.32 208.597 1137.32 210.452C1137.32 212.634 1135.29 213.943 1132.12 213.943C1129.38 213.943 1126.64 212.743 1125.28 211.579L1123.28 214.198ZM1168.39 213.725L1168.63 216.853H1151.97V191.394H1167.84L1168.12 194.522H1155.49V200.741H1164.05V203.869H1155.49V213.725H1168.39ZM1197.51 216.853L1195.12 211.688H1182.92L1180.54 216.853H1176.78L1188.83 191.03H1189.22L1201.26 216.853H1197.51ZM1184.33 208.633H1193.72L1189.02 198.559L1184.33 208.633ZM1237.14 191.03H1237.57V216.853H1234.09V199.723L1224.4 211.506H1224.16L1214.46 199.759V216.853H1210.98V191.03H1211.37L1224.28 206.305L1237.14 191.03ZM1253.51 213.725H1265.09L1264.85 216.853H1249.99V191.394H1253.51V213.725ZM1291.58 213.725L1291.82 216.853H1275.16V191.394H1291.04L1291.31 194.522H1278.68V200.741H1287.24V203.869H1278.68V213.725H1291.58ZM1301.19 214.198C1302.91 215.689 1306.47 217.216 1310.02 217.216C1315.5 217.216 1318.98 214.598 1318.98 210.488C1318.98 207.142 1317.26 205.178 1311.31 202.05C1306.78 199.613 1305.68 198.813 1305.68 197.213C1305.68 195.504 1307.4 194.158 1310.3 194.158C1311.98 194.158 1314.21 194.849 1315.5 195.613L1317.38 192.994C1315.54 191.867 1312.64 191.03 1310.34 191.03C1305.29 191.03 1301.93 193.722 1301.93 197.249C1301.93 200.377 1303.61 201.941 1308.77 204.56C1313.35 206.887 1315.23 208.597 1315.23 210.452C1315.23 212.634 1313.19 213.943 1310.02 213.943C1307.29 213.943 1304.55 212.743 1303.18 211.579L1301.19 214.198ZM1328.35 214.198C1330.07 215.689 1333.63 217.216 1337.19 217.216C1342.66 217.216 1346.14 214.598 1346.14 210.488C1346.14 207.142 1344.42 205.178 1338.48 202.05C1333.94 199.613 1332.84 198.813 1332.84 197.213C1332.84 195.504 1334.57 194.158 1337.46 194.158C1339.14 194.158 1341.37 194.849 1342.66 195.613L1344.54 192.994C1342.7 191.867 1339.81 191.03 1337.5 191.03C1332.45 191.03 1329.09 193.722 1329.09 197.249C1329.09 200.377 1330.77 201.941 1335.93 204.56C1340.51 206.887 1342.39 208.597 1342.39 210.452C1342.39 212.634 1340.35 213.943 1337.19 213.943C1334.45 213.943 1331.71 212.743 1330.34 211.579L1328.35 214.198ZM1360.55 213.725H1372.13L1371.89 216.853H1357.03V191.394H1360.55V213.725ZM1402.61 191.394L1392.95 205.542V216.853H1389.44V205.578L1379.74 191.394H1383.73L1391.19 202.341L1398.62 191.394H1402.61Z" fill="#181A1E"/>
</svg>
