<svg width="1427" height="311" viewBox="0 0 1427 311" fill="none" xmlns="http://www.w3.org/2000/svg">
<path fill-rule="evenodd" clip-rule="evenodd" d="M246.896 91.4084H47.1531C45.5547 91.4084 44.2589 92.7114 44.2589 94.3187V263.113C44.2589 264.721 45.5547 266.024 47.1531 266.024H339.46C341.059 266.024 342.355 264.721 342.355 263.113V94.3187C342.355 92.7114 341.059 91.4084 339.46 91.4084H287.826L308.085 71.0366H339.46C352.248 71.0366 362.614 81.4603 362.614 94.3187V263.113C362.614 275.972 352.248 286.395 339.46 286.395H47.1531C34.366 286.395 24 275.972 24 263.113V94.3187C24 81.4603 34.366 71.0366 47.1531 71.0366H267.155L246.896 91.4084ZM38.4707 165.62C38.4707 168.031 36.527 169.985 34.1295 169.985C31.7319 169.985 29.7883 168.031 29.7883 165.62C29.7883 163.209 31.7319 161.254 34.1295 161.254C36.527 161.254 38.4707 163.209 38.4707 165.62ZM34.1295 184.537C36.527 184.537 38.4707 182.582 38.4707 180.171C38.4707 177.76 36.527 175.806 34.1295 175.806C31.7319 175.806 29.7883 177.76 29.7883 180.171C29.7883 182.582 31.7319 184.537 34.1295 184.537ZM38.4707 194.722C38.4707 197.133 36.527 199.088 34.1295 199.088C31.7319 199.088 29.7883 197.133 29.7883 194.722C29.7883 192.311 31.7319 190.357 34.1295 190.357C36.527 190.357 38.4707 192.311 38.4707 194.722Z" fill="white"/>
<path fill-rule="evenodd" clip-rule="evenodd" d="M101.487 134.354C109.803 128.49 121.447 128.532 132.674 137.393L127.754 143.697C118.826 136.65 111.048 137.4 106.063 140.915C100.824 144.609 97.7605 151.937 99.5818 159.838C100.351 163.173 102.29 165.309 105.31 167.087C107.982 168.658 111.144 169.761 114.808 171.039C115.609 171.318 116.435 171.606 117.285 171.909C121.752 173.502 126.781 175.494 130.808 179.002C135.019 182.669 137.918 187.787 138.543 195.102C138.882 199.075 138.223 202.518 136.807 205.416C139.692 206.78 142.763 208.247 146.031 209.819L142.593 217.047C138.598 215.126 134.912 213.369 131.511 211.769C131.316 211.917 131.117 212.061 130.915 212.203C126.024 215.636 119.608 216.98 113.588 217.073C107.529 217.166 101.322 216.002 96.5354 213.864C94.1482 212.798 91.9053 211.396 90.2345 209.594C88.532 207.758 87.2643 205.307 87.4397 202.392C87.6188 199.416 88.0764 195.656 90.6211 193.148C93.4357 190.373 97.4117 190.322 101.344 191.084C105.426 191.875 110.836 193.813 117.96 196.845C121.366 198.295 125.22 200.021 129.579 202.034C130.424 200.383 130.822 198.343 130.603 195.787C130.152 190.499 128.195 187.326 125.591 185.059C122.804 182.631 119.062 181.045 114.621 179.461C113.922 179.212 113.198 178.961 112.458 178.704C108.779 177.427 104.702 176.012 101.286 174.003C96.949 171.451 93.2154 167.704 91.819 161.647C89.31 150.764 93.4257 140.04 101.487 134.354ZM122.469 207.584C119.695 206.326 117.163 205.208 114.853 204.224C107.786 201.216 103.035 199.572 99.8353 198.952C98.2488 198.645 97.2734 198.637 96.7083 198.719C96.4442 198.758 96.3087 198.811 96.2559 198.835C96.2135 198.855 96.2031 198.866 96.1997 198.869L96.199 198.87C96.0697 198.998 95.5818 199.751 95.3938 202.876C95.3857 203.011 95.3962 203.411 96.0628 204.13C96.7611 204.883 97.978 205.74 99.7706 206.541C103.343 208.137 108.376 209.139 113.466 209.061C116.759 209.01 119.853 208.512 122.469 207.584Z" fill="white"/>
<path d="M311.176 30.8872C314.567 27.4776 320.064 27.4776 323.455 30.8872L327.548 35.0029C330.938 38.4125 330.938 43.9405 327.548 47.3501L176.579 199.16L160.207 182.697L311.176 30.8872Z" fill="white"/>
<path d="M142.482 216.993C140.367 214.867 157.164 185.276 157.164 185.276L174.023 202.23C174.023 202.23 144.597 219.12 142.482 216.993Z" fill="white"/>
<path d="M386.613 151.545V91.1684H394.96V151.545H386.613ZM457.116 91.1684H465.462V152.407H464.442L420.855 109.368V151.545H412.601V90.3059H413.528L457.116 133.346V91.1684ZM521.034 151.545L501.837 124.03L491.45 136.02V151.545H483.103V91.1684H491.45V124.03L520.292 91.1684H530.4L507.494 117.562L530.771 151.545H521.034ZM552.029 98.5861V117.217H571.875V124.634H552.029V151.545H543.683V91.1684H580.593L581.149 98.5861H552.029ZM603.428 144.127H630.878L630.322 151.545H595.081V91.1684H603.428V144.127ZM673.652 152.407C655.104 152.407 640.358 138.607 640.358 121.357C640.358 104.106 655.104 90.3059 673.652 90.3059C692.199 90.3059 706.945 104.106 706.945 121.357C706.945 138.607 692.199 152.407 673.652 152.407ZM673.652 144.99C687.748 144.99 698.32 134.726 698.32 121.357C698.32 107.988 687.748 97.7236 673.652 97.7236C659.463 97.7236 648.89 107.988 648.89 121.357C648.89 134.726 659.463 144.99 673.652 144.99ZM716.518 91.1684H725.235L739.517 132.311L756.488 90.3059H757.509L774.665 132.311L788.854 91.1684H797.664L775.871 152.407H774.851L757.045 109.281L739.146 152.407H738.219L716.518 91.1684ZM886.086 151.545L880.429 139.297H851.495L845.838 151.545H836.935L865.498 90.3059H866.426L894.989 151.545H886.086ZM854.833 132.052H877.091L865.962 108.16L854.833 132.052ZM906.232 151.545V91.1684H914.578V151.545H906.232ZM963.308 121.357C963.308 103.934 978.053 90.3059 996.601 90.3059C1004.39 90.3059 1011.81 92.721 1018.39 97.3786L1014.22 103.416C1008.75 99.5349 1003.09 97.6373 996.601 97.6373C982.597 97.6373 971.654 108.074 971.654 121.357C971.654 134.639 982.69 145.076 996.601 145.076C1003.65 145.076 1009.68 143.006 1014.22 138.952L1018.49 144.903C1012.83 149.647 1004.85 152.407 996.601 152.407C978.053 152.407 963.308 138.693 963.308 121.357ZM1063.21 152.407C1044.66 152.407 1029.92 138.607 1029.92 121.357C1029.92 104.106 1044.66 90.3059 1063.21 90.3059C1081.76 90.3059 1096.5 104.106 1096.5 121.357C1096.5 138.607 1081.76 152.407 1063.21 152.407ZM1063.21 144.99C1077.3 144.99 1087.88 134.726 1087.88 121.357C1087.88 107.988 1077.3 97.7236 1063.21 97.7236C1049.02 97.7236 1038.45 107.988 1038.45 121.357C1038.45 134.726 1049.02 144.99 1063.21 144.99ZM1156.15 91.1684H1164.5V152.407H1163.48L1119.89 109.368V151.545H1111.64V90.3059H1112.57L1156.15 133.346V91.1684ZM1176.58 91.1684H1185.67L1205.33 135.329L1225.08 91.1684H1234.17L1205.88 152.407H1204.86L1176.58 91.1684ZM1285.29 144.127L1285.84 151.545H1246.34V91.1684H1283.99L1284.64 98.5861H1254.68V113.335H1274.99V120.753H1254.68V144.127H1285.29ZM1347.07 112.99C1347.07 122.737 1342.16 131.103 1332.05 133.863L1346.05 151.545H1336.04L1322.78 134.812H1308.22V151.545H1299.87V91.1684H1324.35C1339.65 91.1684 1347.07 101.001 1347.07 112.99ZM1308.22 98.4136V127.481H1323.98C1334.46 127.481 1338.73 120.322 1338.73 112.99C1338.73 105.659 1334.46 98.4136 1323.98 98.4136H1308.22ZM1402.46 98.5861H1383.54V151.545H1375.19V98.5861H1356.18L1356.74 91.1684H1401.9L1402.46 98.5861Z" fill="white"/>
<path d="M403.702 192.108H407.221V217.566H403.702V205.855H390.133V217.566H386.613V192.108H390.133V202.728H403.702V192.108ZM437.628 217.566L435.243 212.402H423.042L420.657 217.566H416.903L428.947 191.744H429.338L441.382 217.566H437.628ZM424.45 209.347H433.835L429.143 199.273L424.45 209.347ZM469.873 192.108H473.392V217.93H472.962L454.583 199.782V217.566H451.103V191.744H451.494L469.873 209.892V192.108ZM495.196 192.108C504.268 192.108 509.274 197.272 509.274 204.837C509.274 212.402 504.268 217.566 495.196 217.566H485.811V192.108H495.196ZM495.392 214.439C502.04 214.439 505.754 210.584 505.754 204.837C505.754 199.054 502.04 195.236 495.392 195.236H489.331V214.439H495.392ZM518.29 192.108H521.966L527.988 209.456L535.145 191.744H535.575L542.809 209.456L548.792 192.108H552.507L543.317 217.93H542.887L535.379 199.745L527.832 217.93H527.441L518.29 192.108ZM582.484 201.309C582.484 205.419 580.411 208.947 576.149 210.111L582.054 217.566H577.83L572.238 210.511H566.099V217.566H562.579V192.108H572.903C579.355 192.108 582.484 196.254 582.484 201.309ZM566.099 195.163V207.419H572.747C577.165 207.419 578.964 204.401 578.964 201.309C578.964 198.218 577.165 195.163 572.747 195.163H566.099ZM593.729 217.566V192.108H597.249V217.566H593.729ZM626.756 195.236H618.779V217.566H615.259V195.236H607.243L607.477 192.108H626.521L626.756 195.236ZM636.828 217.566V192.108H640.348V217.566H636.828ZM671.537 192.108H675.056V217.93H674.626L656.247 199.782V217.566H652.767V191.744H653.158L671.537 209.892V192.108ZM710.156 202.8V215.275C708.044 216.766 705.15 217.93 700.575 217.93C691.972 217.93 686.38 212.111 686.38 204.837C686.38 197.563 692.285 191.744 700.497 191.744C704.29 191.744 707.418 193.017 709.882 194.836L708.044 197.309C705.893 195.708 703.234 194.872 700.497 194.872C694.631 194.872 690.056 199.018 690.056 204.837C690.056 210.656 694.279 214.766 700.575 214.766C702.96 214.766 704.994 214.293 706.636 213.566V205.965H701.357L701.592 202.8H710.156ZM758.456 195.236H750.478V217.566H746.959V195.236H738.942L739.177 192.108H758.221L758.456 195.236ZM788.432 201.309C788.432 205.419 786.36 208.947 782.097 210.111L788.002 217.566H783.779L778.187 210.511H772.048V217.566H768.528V192.108H778.852C785.304 192.108 788.432 196.254 788.432 201.309ZM772.048 195.163V207.419H778.695C783.114 207.419 784.913 204.401 784.913 201.309C784.913 198.218 783.114 195.163 778.695 195.163H772.048ZM817.666 217.566L815.281 212.402H803.08L800.695 217.566H796.941L808.985 191.744H809.376L821.42 217.566H817.666ZM804.488 209.347H813.873L809.18 199.273L804.488 209.347ZM849.911 192.108H853.43V217.93H853L834.621 199.782V217.566H831.141V191.744H831.532L849.911 209.892V192.108ZM864.324 214.911C866.044 216.403 869.603 217.93 873.161 217.93C878.636 217.93 882.116 215.312 882.116 211.202C882.116 207.856 880.396 205.892 874.452 202.764C869.916 200.327 868.821 199.527 868.821 197.927C868.821 196.218 870.541 194.872 873.435 194.872C875.117 194.872 877.346 195.563 878.636 196.327L880.513 193.708C878.675 192.581 875.781 191.744 873.474 191.744C868.43 191.744 865.067 194.435 865.067 197.963C865.067 201.091 866.748 202.655 871.91 205.274C876.485 207.601 878.362 209.311 878.362 211.165C878.362 213.348 876.329 214.657 873.161 214.657C870.424 214.657 867.687 213.457 866.318 212.293L864.324 214.911ZM896.529 195.236V203.091H904.898V206.219H896.529V217.566H893.01V192.108H908.574L908.808 195.236H896.529ZM932.606 217.93C924.785 217.93 918.568 212.111 918.568 204.837C918.568 197.563 924.785 191.744 932.606 191.744C940.427 191.744 946.645 197.563 946.645 204.837C946.645 212.111 940.427 217.93 932.606 217.93ZM932.606 214.802C938.55 214.802 943.008 210.474 943.008 204.837C943.008 199.2 938.55 194.872 932.606 194.872C926.623 194.872 922.165 199.2 922.165 204.837C922.165 210.474 926.623 214.802 932.606 214.802ZM977.912 201.309C977.912 205.419 975.84 208.947 971.577 210.111L977.482 217.566H973.259L967.667 210.511H961.527V217.566H958.008V192.108H968.331C974.784 192.108 977.912 196.254 977.912 201.309ZM961.527 195.163V207.419H968.175C972.594 207.419 974.393 204.401 974.393 201.309C974.393 198.218 972.594 195.163 968.175 195.163H961.527ZM1015.32 191.744H1015.75V217.566H1012.27V200.436L1002.57 212.22H1002.34L992.638 200.473V217.566H989.158V191.744H989.549L1002.45 207.019L1015.32 191.744ZM1044.59 214.439L1044.83 217.566H1028.17V192.108H1044.04L1044.32 195.236H1031.69V201.455H1040.25V204.583H1031.69V214.439H1044.59ZM1065.1 192.108C1074.18 192.108 1079.18 197.272 1079.18 204.837C1079.18 212.402 1074.18 217.566 1065.1 217.566H1055.72V192.108H1065.1ZM1065.3 214.439C1071.95 214.439 1075.66 210.584 1075.66 204.837C1075.66 199.054 1071.95 195.236 1065.3 195.236H1059.24V214.439H1065.3ZM1091.37 213.493H1094.26L1091.8 220.803H1089.37L1091.37 213.493ZM1123.28 214.911C1125 216.403 1128.56 217.93 1132.12 217.93C1137.59 217.93 1141.07 215.312 1141.07 211.202C1141.07 207.856 1139.35 205.892 1133.41 202.764C1128.87 200.327 1127.78 199.527 1127.78 197.927C1127.78 196.218 1129.5 194.872 1132.39 194.872C1134.07 194.872 1136.3 195.563 1137.59 196.327L1139.47 193.708C1137.63 192.581 1134.74 191.744 1132.43 191.744C1127.39 191.744 1124.02 194.435 1124.02 197.963C1124.02 201.091 1125.71 202.655 1130.87 205.274C1135.44 207.601 1137.32 209.311 1137.32 211.165C1137.32 213.348 1135.29 214.657 1132.12 214.657C1129.38 214.657 1126.64 213.457 1125.28 212.293L1123.28 214.911ZM1168.39 214.439L1168.63 217.566H1151.97V192.108H1167.84L1168.12 195.236H1155.49V201.455H1164.05V204.583H1155.49V214.439H1168.39ZM1197.51 217.566L1195.12 212.402H1182.92L1180.54 217.566H1176.78L1188.83 191.744H1189.22L1201.26 217.566H1197.51ZM1184.33 209.347H1193.72L1189.02 199.273L1184.33 209.347ZM1237.14 191.744H1237.57V217.566H1234.09V200.436L1224.4 212.22H1224.16L1214.46 200.473V217.566H1210.98V191.744H1211.37L1224.28 207.019L1237.14 191.744ZM1253.51 214.439H1265.09L1264.85 217.566H1249.99V192.108H1253.51V214.439ZM1291.58 214.439L1291.82 217.566H1275.16V192.108H1291.04L1291.31 195.236H1278.68V201.455H1287.24V204.583H1278.68V214.439H1291.58ZM1301.19 214.911C1302.91 216.403 1306.47 217.93 1310.02 217.93C1315.5 217.93 1318.98 215.312 1318.98 211.202C1318.98 207.856 1317.26 205.892 1311.31 202.764C1306.78 200.327 1305.68 199.527 1305.68 197.927C1305.68 196.218 1307.4 194.872 1310.3 194.872C1311.98 194.872 1314.21 195.563 1315.5 196.327L1317.38 193.708C1315.54 192.581 1312.64 191.744 1310.34 191.744C1305.29 191.744 1301.93 194.435 1301.93 197.963C1301.93 201.091 1303.61 202.655 1308.77 205.274C1313.35 207.601 1315.23 209.311 1315.23 211.165C1315.23 213.348 1313.19 214.657 1310.02 214.657C1307.29 214.657 1304.55 213.457 1303.18 212.293L1301.19 214.911ZM1328.35 214.911C1330.07 216.403 1333.63 217.93 1337.19 217.93C1342.66 217.93 1346.14 215.312 1346.14 211.202C1346.14 207.856 1344.42 205.892 1338.48 202.764C1333.94 200.327 1332.84 199.527 1332.84 197.927C1332.84 196.218 1334.57 194.872 1337.46 194.872C1339.14 194.872 1341.37 195.563 1342.66 196.327L1344.54 193.708C1342.7 192.581 1339.81 191.744 1337.5 191.744C1332.45 191.744 1329.09 194.435 1329.09 197.963C1329.09 201.091 1330.77 202.655 1335.93 205.274C1340.51 207.601 1342.39 209.311 1342.39 211.165C1342.39 213.348 1340.35 214.657 1337.19 214.657C1334.45 214.657 1331.71 213.457 1330.34 212.293L1328.35 214.911ZM1360.55 214.439H1372.13L1371.89 217.566H1357.03V192.108H1360.55V214.439ZM1402.61 192.108L1392.95 206.256V217.566H1389.44V206.292L1379.74 192.108H1383.73L1391.19 203.055L1398.62 192.108H1402.61Z" fill="white"/>
</svg>
