<svg width="1064" height="480" viewBox="0 0 1064 480" fill="none" xmlns="http://www.w3.org/2000/svg">
<path d="M24 386.741V326.364H32.3465V386.741H24ZM94.5024 326.364H102.849V387.603H101.829L58.2415 344.564V386.741H49.9878V325.502H50.9151L94.5024 368.542V326.364ZM158.42 386.741L139.223 359.227L128.837 371.216V386.741H120.49V326.364H128.837V359.227L157.678 326.364H167.787L144.88 352.758L168.158 386.741H158.42ZM189.416 333.782V352.413H209.262V359.83H189.416V386.741H181.07V326.364H217.98L218.536 333.782H189.416ZM240.814 379.323H268.265L267.709 386.741H232.468V326.364H240.814V379.323ZM311.038 387.603C292.491 387.603 277.745 373.803 277.745 356.553C277.745 339.302 292.491 325.502 311.038 325.502C329.586 325.502 344.332 339.302 344.332 356.553C344.332 373.803 329.586 387.603 311.038 387.603ZM311.038 380.186C325.135 380.186 335.707 369.922 335.707 356.553C335.707 343.184 325.135 332.92 311.038 332.92C296.849 332.92 286.277 343.184 286.277 356.553C286.277 369.922 296.849 380.186 311.038 380.186ZM353.905 326.364H362.622L376.904 367.507L393.875 325.502H394.895L412.052 367.507L426.241 326.364H435.051L413.258 387.603H412.237L394.432 344.477L376.533 387.603H375.606L353.905 326.364ZM523.473 386.741L517.816 374.493H488.882L483.224 386.741H474.322L502.885 325.502H503.812L532.376 386.741H523.473ZM492.22 367.248H514.477L503.349 343.356L492.22 367.248ZM543.618 386.741V326.364H551.965V386.741H543.618ZM600.694 356.553C600.694 339.13 615.44 325.502 633.988 325.502C641.778 325.502 649.197 327.917 655.781 332.575L651.608 338.612C646.137 334.731 640.479 332.833 633.988 332.833C619.984 332.833 609.041 343.27 609.041 356.553C609.041 369.836 620.077 380.272 633.988 380.272C641.036 380.272 647.064 378.202 651.608 374.148L655.874 380.1C650.217 384.843 642.241 387.603 633.988 387.603C615.44 387.603 600.694 373.889 600.694 356.553ZM700.595 387.603C682.047 387.603 667.302 373.803 667.302 356.553C667.302 339.302 682.047 325.502 700.595 325.502C719.143 325.502 733.888 339.302 733.888 356.553C733.888 373.803 719.143 387.603 700.595 387.603ZM700.595 380.186C714.691 380.186 725.264 369.922 725.264 356.553C725.264 343.184 714.691 332.92 700.595 332.92C686.406 332.92 675.834 343.184 675.834 356.553C675.834 369.922 686.406 380.186 700.595 380.186ZM793.54 326.364H801.887V387.603H800.867L757.279 344.564V386.741H749.026V325.502H749.953L793.54 368.542V326.364ZM813.964 326.364H823.052L842.713 370.526L862.466 326.364H871.555L843.269 387.603H842.249L813.964 326.364ZM922.675 379.323L923.231 386.741H883.724V326.364H921.376L922.025 333.782H892.071V348.531H912.381V355.949H892.071V379.323H922.675ZM984.46 348.186C984.46 357.933 979.544 366.299 969.436 369.059L983.439 386.741H973.424L960.162 370.008H945.602V386.741H937.255V326.364H961.739C977.04 326.364 984.46 336.197 984.46 348.186ZM945.602 333.61V362.677H961.368C971.847 362.677 976.113 355.518 976.113 348.186C976.113 340.855 971.847 333.61 961.368 333.61H945.602ZM1039.85 333.782H1020.93V386.741H1012.58V333.782H993.569L994.125 326.364H1039.29L1039.85 333.782Z" fill="#181A1E"/>
<path d="M41.0887 427.304H44.6082V452.763H41.0887V441.052H27.5194V452.763H24V427.304H27.5194V437.924H41.0887V427.304ZM75.015 452.763L72.6296 447.598H60.4289L58.0435 452.763H54.2895L66.3337 426.94H66.7248L78.769 452.763H75.015ZM61.8367 444.543H71.2218L66.5293 434.469L61.8367 444.543ZM107.26 427.304H110.779V453.126H110.349L91.9698 434.978V452.763H88.4895V426.94H88.8805L107.26 445.089V427.304ZM132.583 427.304C141.655 427.304 146.661 432.469 146.661 440.033C146.661 447.598 141.655 452.763 132.583 452.763H123.198V427.304H132.583ZM132.778 449.635C139.426 449.635 143.141 445.78 143.141 440.033C143.141 434.251 139.426 430.432 132.778 430.432H126.717V449.635H132.778ZM155.677 427.304H159.353L165.375 444.652L172.531 426.94H172.961L180.196 444.652L186.179 427.304H189.894L180.704 453.126H180.274L172.766 434.942L165.219 453.126H164.828L155.677 427.304ZM219.87 436.506C219.87 440.615 217.798 444.143 213.535 445.307L219.44 452.763H215.217L209.625 445.707H203.486V452.763H199.966V427.304H210.29C216.742 427.304 219.87 431.45 219.87 436.506ZM203.486 430.359V442.616H210.133C214.552 442.616 216.351 439.597 216.351 436.506C216.351 433.414 214.552 430.359 210.133 430.359H203.486ZM231.116 452.763V427.304H234.635V452.763H231.116ZM264.143 430.432H256.165V452.763H252.646V430.432H244.63L244.864 427.304H263.908L264.143 430.432ZM274.215 452.763V427.304H277.735V452.763H274.215ZM308.923 427.304H312.443V453.126H312.013L293.634 434.978V452.763H290.153V426.94H290.544L308.923 445.089V427.304ZM347.542 437.997V450.471C345.431 451.963 342.537 453.126 337.962 453.126C329.359 453.126 323.767 447.307 323.767 440.033C323.767 432.76 329.671 426.94 337.883 426.94C341.677 426.94 344.805 428.213 347.269 430.032L345.431 432.505C343.28 430.905 340.621 430.068 337.883 430.068C332.018 430.068 327.443 434.214 327.443 440.033C327.443 445.853 331.666 449.962 337.962 449.962C340.347 449.962 342.38 449.489 344.023 448.762V441.161H338.744L338.978 437.997H347.542ZM395.842 430.432H387.865V452.763H384.346V430.432H376.329L376.564 427.304H395.608L395.842 430.432ZM425.819 436.506C425.819 440.615 423.747 444.143 419.484 445.307L425.389 452.763H421.166L415.574 445.707H409.434V452.763H405.915V427.304H416.238C422.691 427.304 425.819 431.45 425.819 436.506ZM409.434 430.359V442.616H416.082C420.501 442.616 422.3 439.597 422.3 436.506C422.3 433.414 420.501 430.359 416.082 430.359H409.434ZM455.053 452.763L452.667 447.598H440.467L438.081 452.763H434.327L446.372 426.94H446.763L458.807 452.763H455.053ZM441.875 444.543H451.26L446.567 434.469L441.875 444.543ZM487.298 427.304H490.817V453.126H490.387L472.008 434.978V452.763H468.527V426.94H468.918L487.298 445.089V427.304ZM501.711 450.108C503.431 451.599 506.99 453.126 510.548 453.126C516.023 453.126 519.503 450.508 519.503 446.398C519.503 443.052 517.783 441.088 511.839 437.96C507.302 435.524 506.208 434.723 506.208 433.123C506.208 431.414 507.928 430.068 510.822 430.068C512.503 430.068 514.732 430.759 516.023 431.523L517.9 428.904C516.062 427.777 513.168 426.94 510.861 426.94C505.817 426.94 502.454 429.632 502.454 433.16C502.454 436.287 504.135 437.851 509.297 440.47C513.872 442.797 515.749 444.507 515.749 446.362C515.749 448.544 513.716 449.853 510.548 449.853C507.811 449.853 505.074 448.653 503.705 447.489L501.711 450.108ZM533.916 430.432V438.288H542.285V441.415H533.916V452.763H530.397V427.304H545.96L546.195 430.432H533.916ZM569.993 453.126C562.172 453.126 555.955 447.307 555.955 440.033C555.955 432.76 562.172 426.94 569.993 426.94C577.814 426.94 584.032 432.76 584.032 440.033C584.032 447.307 577.814 453.126 569.993 453.126ZM569.993 449.999C575.937 449.999 580.395 445.671 580.395 440.033C580.395 434.396 575.937 430.068 569.993 430.068C564.01 430.068 559.552 434.396 559.552 440.033C559.552 445.671 564.01 449.999 569.993 449.999ZM615.299 436.506C615.299 440.615 613.226 444.143 608.964 445.307L614.869 452.763H610.645L605.053 445.707H598.914V452.763H595.395V427.304H605.718C612.17 427.304 615.299 431.45 615.299 436.506ZM598.914 430.359V442.616H605.562C609.981 442.616 611.779 439.597 611.779 436.506C611.779 433.414 609.981 430.359 605.562 430.359H598.914ZM652.705 426.94H653.136V452.763H649.655V435.633L639.957 447.416H639.723L630.025 435.669V452.763H626.544V426.94H626.935L639.84 442.216L652.705 426.94ZM681.978 449.635L682.213 452.763H665.554V427.304H681.431L681.704 430.432H669.074V436.651H677.638V439.779H669.074V449.635H681.978ZM702.492 427.304C711.564 427.304 716.569 432.469 716.569 440.033C716.569 447.598 711.564 452.763 702.492 452.763H693.106V427.304H702.492ZM702.687 449.635C709.335 449.635 713.05 445.78 713.05 440.033C713.05 434.251 709.335 430.432 702.687 430.432H696.626V449.635H702.687ZM728.753 448.689H731.647L729.183 456H726.759L728.753 448.689ZM760.668 450.108C762.389 451.599 765.948 453.126 769.506 453.126C774.981 453.126 778.461 450.508 778.461 446.398C778.461 443.052 776.74 441.088 770.797 437.96C766.26 435.524 765.165 434.723 765.165 433.123C765.165 431.414 766.886 430.068 769.78 430.068C771.461 430.068 773.69 430.759 774.981 431.523L776.858 428.904C775.02 427.777 772.126 426.94 769.819 426.94C764.774 426.94 761.411 429.632 761.411 433.16C761.411 436.287 763.093 437.851 768.255 440.47C772.83 442.797 774.707 444.507 774.707 446.362C774.707 448.544 772.674 449.853 769.506 449.853C766.769 449.853 764.031 448.653 762.663 447.489L760.668 450.108ZM805.779 449.635L806.013 452.763H789.355V427.304H805.231L805.505 430.432H792.874V436.651H801.438V439.779H792.874V449.635H805.779ZM834.895 452.763L832.51 447.598H820.309L817.924 452.763H814.17L826.214 426.94H826.605L838.649 452.763H834.895ZM821.717 444.543H831.102L826.409 434.469L821.717 444.543ZM874.531 426.94H874.961V452.763H871.48V435.633L861.782 447.416H861.548L851.85 435.669V452.763H848.369V426.94H848.761L861.665 442.216L874.531 426.94ZM890.899 449.635H902.474L902.239 452.763H887.379V427.304H890.899V449.635ZM928.97 449.635L929.205 452.763H912.546V427.304H928.423L928.696 430.432H916.066V436.651H924.63V439.779H916.066V449.635H928.97ZM938.573 450.108C940.294 451.599 943.852 453.126 947.411 453.126C952.886 453.126 956.366 450.508 956.366 446.398C956.366 443.052 954.645 441.088 948.701 437.96C944.165 435.524 943.07 434.723 943.07 433.123C943.07 431.414 944.791 430.068 947.685 430.068C949.366 430.068 951.595 430.759 952.886 431.523L954.763 428.904C952.925 427.777 950.031 426.94 947.724 426.94C942.679 426.94 939.316 429.632 939.316 433.16C939.316 436.287 940.998 437.851 946.16 440.47C950.735 442.797 952.612 444.507 952.612 446.362C952.612 448.544 950.578 449.853 947.411 449.853C944.674 449.853 941.936 448.653 940.568 447.489L938.573 450.108ZM965.734 450.108C967.455 451.599 971.014 453.126 974.572 453.126C980.047 453.126 983.527 450.508 983.527 446.398C983.527 443.052 981.806 441.088 975.863 437.96C971.326 435.524 970.231 434.723 970.231 433.123C970.231 431.414 971.952 430.068 974.846 430.068C976.527 430.068 978.756 430.759 980.047 431.523L981.924 428.904C980.086 427.777 977.192 426.94 974.885 426.94C969.84 426.94 966.477 429.632 966.477 433.16C966.477 436.287 968.159 437.851 973.321 440.47C977.896 442.797 979.773 444.507 979.773 446.362C979.773 448.544 977.74 449.853 974.572 449.853C971.835 449.853 969.097 448.653 967.729 447.489L965.734 450.108ZM997.94 449.635H1009.51L1009.28 452.763H994.421V427.304H997.94V449.635ZM1040 427.304L1030.34 441.452V452.763H1026.82V441.488L1017.12 427.304H1021.11L1028.58 438.251L1036.01 427.304H1040Z" fill="#181A1E"/>
<path fill-rule="evenodd" clip-rule="evenodd" d="M586.007 90.695H386.263C384.665 90.695 383.369 91.998 383.369 93.6053V262.4C383.369 264.007 384.665 265.31 386.263 265.31H678.571C680.169 265.31 681.465 264.007 681.465 262.4V93.6053C681.465 91.998 680.169 90.695 678.571 90.695H626.936L647.195 70.3232H678.571C691.358 70.3232 701.724 80.747 701.724 93.6053V262.4C701.724 275.258 691.358 285.682 678.571 285.682H386.263C373.476 285.682 363.11 275.258 363.11 262.4V93.6053C363.11 80.747 373.476 70.3232 386.263 70.3232H606.266L586.007 90.695ZM377.581 164.906C377.581 167.317 375.637 169.272 373.24 169.272C370.842 169.272 368.899 167.317 368.899 164.906C368.899 162.496 370.842 160.541 373.24 160.541C375.637 160.541 377.581 162.496 377.581 164.906ZM373.24 183.823C375.637 183.823 377.581 181.869 377.581 179.458C377.581 177.047 375.637 175.092 373.24 175.092C370.842 175.092 368.899 177.047 368.899 179.458C368.899 181.869 370.842 183.823 373.24 183.823ZM377.581 194.009C377.581 196.42 375.637 198.374 373.24 198.374C370.842 198.374 368.899 196.42 368.899 194.009C368.899 191.598 370.842 189.644 373.24 189.644C375.637 189.644 377.581 191.598 377.581 194.009Z" fill="#181A1E"/>
<path fill-rule="evenodd" clip-rule="evenodd" d="M440.598 133.641C448.914 127.776 460.557 127.819 471.784 136.679L466.864 142.983C457.936 135.937 450.158 136.686 445.173 140.201C439.934 143.895 436.871 151.223 438.692 159.124C439.461 162.459 441.4 164.595 444.421 166.373C447.092 167.944 450.255 169.047 453.918 170.325C454.72 170.604 455.546 170.892 456.395 171.195C460.862 172.788 465.892 174.781 469.919 178.288C474.129 181.955 477.028 187.073 477.653 194.388C477.993 198.361 477.333 201.804 475.917 204.702C478.803 206.067 481.874 207.533 485.142 209.105L481.704 216.334C477.708 214.412 474.022 212.655 470.621 211.055C470.426 211.203 470.227 211.348 470.026 211.489C465.134 214.922 458.719 216.266 452.699 216.359C446.639 216.453 440.433 215.289 435.646 213.15C433.259 212.084 431.016 210.682 429.345 208.88C427.642 207.044 426.375 204.593 426.55 201.678C426.729 198.702 427.187 194.942 429.731 192.434C432.546 189.66 436.522 189.608 440.454 190.37C444.537 191.162 449.946 193.099 457.07 196.132C460.476 197.582 464.33 199.307 468.689 201.321C469.534 199.669 469.932 197.629 469.714 195.074C469.262 189.785 467.305 186.612 464.702 184.345C461.915 181.917 458.173 180.331 453.732 178.748C453.033 178.498 452.309 178.247 451.568 177.99C447.889 176.713 443.812 175.298 440.397 173.289C436.059 170.737 432.326 166.99 430.929 160.933C428.42 150.05 432.536 139.326 440.598 133.641ZM461.58 206.87C458.805 205.612 456.274 204.494 453.963 203.511C446.897 200.502 442.145 198.858 438.946 198.238C437.359 197.931 436.384 197.923 435.819 198.006C435.555 198.044 435.419 198.097 435.366 198.122C435.324 198.141 435.313 198.152 435.31 198.156L435.309 198.156C435.18 198.284 434.692 199.037 434.504 202.162C434.496 202.297 434.507 202.697 435.173 203.416C435.871 204.169 437.088 205.027 438.881 205.827C442.454 207.423 447.486 208.425 452.576 208.347C455.869 208.296 458.963 207.798 461.58 206.87Z" fill="#181A1E"/>
<path d="M650.286 30.1736C653.677 26.764 659.174 26.764 662.565 30.1736L666.658 34.2893C670.049 37.6989 670.049 43.2269 666.658 46.6365L515.689 198.447L499.317 181.984L650.286 30.1736Z" fill="#181A1E"/>
<path d="M481.592 216.28C479.478 214.153 496.274 184.563 496.274 184.563L513.134 201.516C513.134 201.516 483.707 218.406 481.592 216.28Z" fill="#181A1E"/>
</svg>
