<svg width="432" height="432" viewBox="0 0 432 432" fill="none" xmlns="http://www.w3.org/2000/svg">
<circle cx="216" cy="216" r="216" fill="#181A1E"/>
<path fill-rule="evenodd" clip-rule="evenodd" d="M269.896 151.695H70.1531C68.5547 151.695 67.2589 152.998 67.2589 154.605V323.4C67.2589 325.007 68.5547 326.31 70.1531 326.31H362.46C364.059 326.31 365.355 325.007 365.355 323.4V154.605C365.355 152.998 364.059 151.695 362.46 151.695H310.826L331.085 131.323H362.46C375.248 131.323 385.614 141.747 385.614 154.605V323.4C385.614 336.258 375.248 346.682 362.46 346.682H70.1531C57.366 346.682 47 336.258 47 323.4V154.605C47 141.747 57.366 131.323 70.1531 131.323H290.155L269.896 151.695ZM61.4707 225.906C61.4707 228.317 59.527 230.272 57.1295 230.272C54.7319 230.272 52.7883 228.317 52.7883 225.906C52.7883 223.496 54.7319 221.541 57.1295 221.541C59.527 221.541 61.4707 223.496 61.4707 225.906ZM57.1295 244.823C59.527 244.823 61.4707 242.869 61.4707 240.458C61.4707 238.047 59.527 236.092 57.1295 236.092C54.7319 236.092 52.7883 238.047 52.7883 240.458C52.7883 242.869 54.7319 244.823 57.1295 244.823ZM61.4707 255.009C61.4707 257.42 59.527 259.374 57.1295 259.374C54.7319 259.374 52.7883 257.42 52.7883 255.009C52.7883 252.598 54.7319 250.644 57.1295 250.644C59.527 250.644 61.4707 252.598 61.4707 255.009Z" fill="white"/>
<path fill-rule="evenodd" clip-rule="evenodd" d="M124.487 194.641C132.803 188.776 144.447 188.819 155.674 197.679L150.754 203.983C141.826 196.937 134.048 197.686 129.063 201.201C123.824 204.895 120.76 212.223 122.582 220.124C123.351 223.459 125.29 225.595 128.31 227.373C130.982 228.944 134.144 230.047 137.808 231.325C138.609 231.604 139.435 231.892 140.285 232.195C144.752 233.788 149.781 235.781 153.808 239.288C158.019 242.955 160.918 248.073 161.543 255.388C161.882 259.361 161.223 262.804 159.807 265.702C162.692 267.067 165.763 268.533 169.031 270.105L165.593 277.334C161.598 275.412 157.912 273.655 154.511 272.055C154.316 272.203 154.117 272.348 153.915 272.489C149.024 275.922 142.608 277.266 136.588 277.359C130.529 277.453 124.322 276.289 119.535 274.15C117.148 273.084 114.905 271.682 113.235 269.88C111.532 268.044 110.264 265.593 110.44 262.678C110.619 259.702 111.076 255.942 113.621 253.434C116.436 250.66 120.412 250.608 124.344 251.37C128.426 252.162 133.836 254.099 140.96 257.132C144.366 258.582 148.22 260.307 152.579 262.321C153.424 260.669 153.822 258.629 153.603 256.074C153.152 250.785 151.195 247.612 148.591 245.345C145.804 242.917 142.062 241.331 137.621 239.748C136.922 239.498 136.198 239.247 135.458 238.99C131.779 237.713 127.702 236.298 124.286 234.289C119.949 231.737 116.215 227.99 114.819 221.933C112.31 211.05 116.426 200.326 124.487 194.641ZM145.469 267.87C142.695 266.612 140.163 265.494 137.853 264.511C130.786 261.502 126.035 259.858 122.835 259.238C121.249 258.931 120.273 258.923 119.708 259.006C119.444 259.044 119.309 259.097 119.256 259.122C119.214 259.141 119.203 259.152 119.2 259.156L119.199 259.156C119.07 259.284 118.582 260.037 118.394 263.162C118.386 263.297 118.396 263.697 119.063 264.416C119.761 265.169 120.978 266.027 122.771 266.827C126.343 268.423 131.376 269.425 136.466 269.347C139.759 269.296 142.853 268.798 145.469 267.87Z" fill="white"/>
<path d="M334.176 91.1736C337.567 87.764 343.064 87.764 346.455 91.1736L350.548 95.2893C353.938 98.6989 353.938 104.227 350.548 107.636L199.579 259.447L183.207 242.984L334.176 91.1736Z" fill="white"/>
<path d="M165.482 277.28C163.367 275.153 180.164 245.563 180.164 245.563L197.023 262.516C197.023 262.516 167.597 279.406 165.482 277.28Z" fill="white"/>
</svg>
